<?xml version="1.0" encoding="UTF-8"?>
<svg version="1.1" xmlns="http://www.w3.org/2000/svg" width="494" height="505">
<path d="M0 0 C2.5309252 -0.00463552 5.06184972 -0.00966115 7.59277344 -0.01504517 C14.4311067 -0.02809061 21.26942878 -0.03463495 28.10777235 -0.03905582 C32.38309444 -0.04183163 36.65841431 -0.04607091 40.93373489 -0.05056 C52.79129328 -0.06273143 64.64884992 -0.07303995 76.50641441 -0.07643509 C77.26255393 -0.07665466 78.01869344 -0.07687422 78.79774628 -0.07710044 C79.93447554 -0.07742786 79.93447554 -0.07742786 81.09416902 -0.07776189 C82.62951112 -0.07820534 84.16485322 -0.0786519 85.70019531 -0.07910156 C86.46175842 -0.07932299 87.22332153 -0.07954442 88.0079623 -0.07977256 C100.37215995 -0.08372819 112.73629896 -0.10121494 125.10047393 -0.12446108 C137.82037769 -0.14818196 150.54025197 -0.16063701 163.26017821 -0.16180301 C170.39199448 -0.16271851 177.52373395 -0.16844093 184.65552902 -0.18662262 C191.35496076 -0.20364389 198.05422173 -0.20527105 204.75367737 -0.19648361 C207.21109533 -0.1957122 209.66852109 -0.20006963 212.12591934 -0.20994186 C215.48128658 -0.22263152 218.83613423 -0.21680061 222.1914978 -0.20635986 C223.16251006 -0.21441627 224.13352231 -0.22247267 225.13395917 -0.23077321 C231.05559474 -0.18770235 235.4297276 0.75777187 240.85400391 3.16113281 C240.85400391 3.82113281 240.85400391 4.48113281 240.85400391 5.16113281 C241.51400391 5.16113281 242.17400391 5.16113281 242.85400391 5.16113281 C246.5559038 11.97448067 247.43030246 17.60090024 247.36193848 25.28797913 C247.37129842 26.92038446 247.37129842 26.92038446 247.38084745 28.58576769 C247.39674269 32.21536089 247.38418618 35.84427932 247.37158203 39.47387695 C247.37700462 42.08288463 247.38412805 44.69188924 247.39282227 47.30088806 C247.41056837 53.64111837 247.40678523 59.9811588 247.3951717 66.32139642 C247.38612299 71.47559129 247.38491958 76.6297331 247.38926697 81.78393364 C247.3898799 82.51865054 247.39049283 83.25336743 247.39112434 84.01034848 C247.39240329 85.50309084 247.39370014 86.99583318 247.3950147 88.48857551 C247.40640884 102.47140132 247.39332474 116.45412207 247.37181324 130.43693065 C247.35393956 142.42618667 247.3570508 154.41528778 247.37548828 166.40454102 C247.39690922 180.34028387 247.40531424 194.27593478 247.39303923 208.2116918 C247.39176508 209.69851043 247.39050759 211.18532909 247.38926697 212.67214775 C247.38834131 213.76935687 247.38834131 213.76935687 247.38739696 214.88873183 C247.383948 220.03526515 247.38976251 225.18173998 247.39918518 230.32826424 C247.4115949 237.25832742 247.40272102 244.18809341 247.37960815 251.11812782 C247.37432028 253.66099817 247.37583613 256.20389315 247.38465881 258.74675369 C247.39559391 262.21859128 247.38187366 265.68949218 247.36193848 269.16127014 C247.37086136 270.16682058 247.37978425 271.17237102 247.38897753 272.20839268 C247.32060527 278.3499153 246.3864861 283.04429883 242.85400391 288.16113281 C240.35400391 290.53613281 240.35400391 290.53613281 237.85400391 292.16113281 C237.30327209 292.51996552 236.75254028 292.87879822 236.18511963 293.24850464 C232.84066778 294.55785233 229.59358087 294.42285284 226.05615234 294.38818359 C224.88484772 294.38862167 224.88484772 294.38862167 223.68988037 294.3890686 C221.11426602 294.38767761 218.53894259 294.37212733 215.96337891 294.35644531 C214.17547768 294.35271436 212.38757441 294.34986778 210.59967041 294.34786987 C205.89785093 294.34023988 201.19615535 294.32059681 196.49438477 294.29846191 C191.69500403 294.27798985 186.89560324 294.26886524 182.09619141 294.25878906 C172.68207452 294.23735034 163.26804952 294.20322201 153.85400391 294.16113281 C152.27480704 291.00273909 152.71569415 287.61257588 152.72460938 284.14501953 C152.7219809 282.90030632 152.7219809 282.90030632 152.71929932 281.63044739 C152.71487573 278.86721745 152.71782641 276.104051 152.72119141 273.34082031 C152.72051711 271.40577177 152.71954604 269.47072331 152.71829224 267.53567505 C152.71681346 263.45834556 152.71897043 259.38103789 152.72363281 255.30371094 C152.72924768 250.14875883 152.7260196 244.9938593 152.72018051 239.83890915 C152.70082046 219.58296767 152.76364683 199.39331413 153.85400391 179.16113281 C166.39400391 179.16113281 178.93400391 179.16113281 191.85400391 179.16113281 C193.50400391 165.30113281 195.15400391 151.44113281 196.85400391 137.16113281 C182.66400391 137.16113281 168.47400391 137.16113281 153.85400391 137.16113281 C152.13492701 132.00390211 152.66937222 126.55929497 152.66650391 121.16113281 C152.65425781 119.9790625 152.64201172 118.79699219 152.62939453 117.57910156 C152.59521856 96.91403279 152.59521856 96.91403279 158.85400391 90.16113281 C169.61964477 82.27141965 186.37062575 85.08162085 198.85400391 85.16113281 C198.85400391 72.95113281 198.85400391 60.74113281 198.85400391 48.16113281 C193.0675685 47.51819555 187.48781933 46.97003169 181.69775391 46.85253906 C180.95677963 46.83718613 180.21580536 46.82183319 179.45237732 46.80601501 C159.35925793 46.46599361 141.39988668 46.36042458 125.85400391 61.16113281 C117.91686907 69.90427617 111.82287322 81.7910575 111.68041992 93.80615234 C111.66018517 95.17744797 111.66018517 95.17744797 111.63954163 96.57644653 C111.62910324 97.55572113 111.61866486 98.53499573 111.60791016 99.54394531 C111.57499369 101.61816863 111.5417817 103.69238728 111.50830078 105.76660156 C111.46074178 109.03659071 111.41625992 112.306558 111.37719727 115.57666016 C111.33763531 118.73261474 111.28607785 121.88819484 111.23291016 125.04394531 C111.224496 126.02726837 111.21608185 127.01059143 111.20741272 128.02371216 C111.18244972 129.3855513 111.18244972 129.3855513 111.15698242 130.77490234 C111.14667496 131.57558136 111.13636749 132.37626038 111.12574768 133.20120239 C110.85400391 135.16113281 110.85400391 135.16113281 108.85400391 137.16113281 C106.05808086 137.3363254 103.35990353 137.39270644 100.56494141 137.35644531 C99.83960205 137.35443115 99.1142627 137.35241699 98.36694336 137.3503418 C95.65423266 137.33986801 92.94161201 137.31194542 90.22900391 137.28613281 C84.16525391 137.24488281 78.10150391 137.20363281 71.85400391 137.16113281 C72.34900391 157.45613281 72.34900391 157.45613281 72.85400391 178.16113281 C90.67400391 178.65613281 90.67400391 178.65613281 108.85400391 179.16113281 C110.69866935 182.85046371 111.10386543 183.9262507 111.10124207 187.76675415 C111.10543655 188.68650528 111.10963104 189.60625641 111.11395264 190.55387878 C111.10833313 191.55558609 111.10271362 192.5572934 111.09692383 193.58935547 C111.09882217 194.64986618 111.10072052 195.71037689 111.10267639 196.80302429 C111.10638295 200.31048968 111.09568261 203.81774831 111.08447266 207.32519531 C111.08328082 209.75849381 111.0828277 212.19179278 111.08308411 214.62509155 C111.08151951 219.72437419 111.07323068 224.82358659 111.05981445 229.92285156 C111.04280667 236.47145792 111.03900064 243.01998719 111.03975964 249.56861305 C111.03948824 254.5921808 111.03401227 259.61573156 111.02675819 264.63929367 C111.02356807 267.05472052 111.02160332 269.47014931 111.02086449 271.88557816 C111.01870559 275.25431881 111.00997162 278.62297631 110.99926758 281.99169922 C110.99972076 282.99745499 111.00017395 284.00321075 111.00064087 285.03944397 C110.99637589 285.95355545 110.9921109 286.86766693 110.98771667 287.80947876 C110.98604083 288.60624338 110.98436499 289.403008 110.98263836 290.22391701 C110.85400391 292.16113281 110.85400391 292.16113281 109.85400391 294.16113281 C91.08656315 294.25465519 72.31916981 294.32515071 53.55154419 294.3683815 C44.83701783 294.3889896 36.12263643 294.41707658 27.40820312 294.46289062 C19.81096453 294.50281218 12.21383094 294.52857837 4.61649036 294.53748679 C0.59527904 294.54269257 -3.42563194 294.55489117 -7.44674683 294.58405304 C-11.2355843 294.61130644 -15.02399915 294.61955796 -18.81292534 294.61356354 C-20.19961281 294.61465936 -21.58631517 294.62255435 -22.97291756 294.63795471 C-30.78287768 294.72040425 -36.53616621 294.53393974 -43.14599609 290.16113281 C-47.03349454 285.37651934 -48.26548898 281.57249126 -48.28301048 275.52703667 C-48.28808503 274.59517284 -48.29315957 273.66330902 -48.29838789 272.7032069 C-48.29888564 271.68279626 -48.2993834 270.66238563 -48.29989624 269.61105347 C-48.30427849 268.52438295 -48.30866075 267.43771242 -48.3131758 266.31811249 C-48.32656777 262.66405893 -48.33274358 259.01002949 -48.33886719 255.35595703 C-48.34676782 252.74108267 -48.35503675 250.1262094 -48.36364746 247.51133728 C-48.38815205 239.65527725 -48.40279564 231.79921094 -48.41570753 223.94312447 C-48.41942084 221.72344353 -48.42339396 219.50376321 -48.42746019 217.28408289 C-48.4526978 203.49382748 -48.47474621 189.70357105 -48.48718834 175.91329765 C-48.49011793 172.72019319 -48.49307961 169.52708876 -48.49609375 166.33398438 C-48.49721283 165.14357082 -48.49721283 165.14357082 -48.49835451 163.92910852 C-48.51100417 151.07736288 -48.54422321 138.22575572 -48.58589558 125.3740748 C-48.62834895 112.1730941 -48.65188728 98.97218423 -48.6571089 85.77113545 C-48.66051914 78.36182364 -48.67222837 70.95272825 -48.70521164 63.54348373 C-48.73619741 56.57162128 -48.74160991 49.60014143 -48.72982788 42.62822151 C-48.72960701 40.07166323 -48.7379234 37.51508755 -48.75548172 34.95858955 C-48.77817996 31.46297807 -48.76987337 27.96873311 -48.7539978 24.47311401 C-48.77482093 22.96257456 -48.77482093 22.96257456 -48.79606473 21.42151916 C-48.71933216 14.54436185 -47.28801828 8.78138904 -43.14599609 3.16113281 C-32.56451519 -3.42604962 -12.02598907 0.00515508 0 0 Z " fill="#FDFDFD" transform="translate(149.14599609375,101.8388671875)"/>
<path d="M0 0 C1.98 0.66 3.96 1.32 6 2 C6 2.66 6 3.32 6 4 C6.66 4 7.32 4 8 4 C8.66 5.98 9.32 7.96 10 10 C8.5 8.625 8.5 8.625 7 7 C7 6.34 7 5.68 7 5 C6.21625 4.690625 5.4325 4.38125 4.625 4.0625 C2 3 2 3 0 2 C0 1.34 0 0.68 0 0 Z " fill="#F0F0F0" transform="translate(384,103)"/>
</svg>
