<?xml version="1.0" encoding="UTF-8"?>
<svg version="1.1" xmlns="http://www.w3.org/2000/svg" width="500" height="500">
<path d="M0 0 C2.12064646 -0.00135781 4.24129269 -0.00313986 6.36193848 -0.00531006 C12.07862172 -0.00983842 17.79528675 -0.0081141 23.51197028 -0.00493097 C29.51610342 -0.00238448 35.52023508 -0.00475117 41.52436829 -0.00631714 C51.60039548 -0.00813175 61.67641533 -0.00575068 71.75244141 -0.00097656 C83.37967571 0.00446913 95.00689248 0.00269831 106.63412637 -0.00280297 C116.64557535 -0.00734899 126.65701908 -0.00797749 136.66846877 -0.0053643 C142.63559208 -0.00381029 148.60270717 -0.00358376 154.56982994 -0.00690079 C160.17843568 -0.00980132 165.78701893 -0.00776385 171.39562225 -0.00200653 C173.44660467 -0.0006908 175.49758899 -0.00105274 177.54857063 -0.0032692 C213.63629442 -0.03865655 242.88964732 8.05128399 272.56762695 29.12939453 C273.55762695 29.78939453 274.54762695 30.44939453 275.56762695 31.12939453 C275.56762695 31.78939453 275.56762695 32.44939453 275.56762695 33.12939453 C276.16575195 33.41814453 276.76387695 33.70689453 277.38012695 34.00439453 C279.56762695 35.12939453 279.56762695 35.12939453 282.56762695 37.12939453 C282.56762695 37.78939453 282.56762695 38.44939453 282.56762695 39.12939453 C283.40293945 39.46970703 283.40293945 39.46970703 284.25512695 39.81689453 C287.22922283 41.50489489 289.2877156 43.5961597 291.56762695 46.12939453 C291.56762695 46.78939453 291.56762695 47.44939453 291.56762695 48.12939453 C292.22762695 48.12939453 292.88762695 48.12939453 293.56762695 48.12939453 C295.32642919 50.11110052 296.95524271 52.09504713 298.56762695 54.19189453 C299.05529541 54.82240723 299.54296387 55.45291992 300.04541016 56.10253906 C308.97012777 67.77809497 316.40725666 79.7797973 322.56762695 93.12939453 C323.07293945 94.17869141 323.57825195 95.22798828 324.09887695 96.30908203 C326.32011022 101.57149167 327.38355596 107.20061789 328.63012695 112.75439453 C328.88600586 113.85396484 329.14188477 114.95353516 329.40551758 116.08642578 C330.16812681 119.43092795 330.91212701 122.76182112 331.56762695 126.12939453 C331.73216401 126.94260918 331.89670107 127.75582382 332.0662241 128.59368134 C333.96483072 139.16317298 333.86422183 149.63742653 333.8581543 160.34375 C333.86414881 162.46596002 333.87095645 164.58816788 333.87850952 166.71037292 C333.89608804 172.44444741 333.9008616 178.1784621 333.90214109 183.91256094 C333.90356849 187.50673756 333.90784929 191.10089927 333.91313553 194.69507217 C333.93161262 207.2679159 333.93980952 219.84071737 333.93823242 232.41357422 C333.93703338 244.07697387 333.9580952 255.74018778 333.98971975 267.40354049 C334.01600423 277.46098783 334.02659456 287.51837498 334.0253216 297.57585633 C334.02481531 303.56298563 334.03031186 309.54994987 334.0516777 315.53704453 C334.07126499 321.17940381 334.07104675 326.82144412 334.05664444 332.46381569 C334.05458001 334.51501884 334.05911267 336.56624306 334.07136536 338.61741066 C334.25090352 370.80176633 326.78349598 403.22371973 308.56762695 430.12939453 C307.91149414 431.12455078 307.25536133 432.11970703 306.5793457 433.14501953 C303.12847708 438.26059289 303.12847708 438.26059289 301.56762695 440.12939453 C300.90762695 440.12939453 300.24762695 440.12939453 299.56762695 440.12939453 C299.3149707 440.69529297 299.06231445 441.26119141 298.80200195 441.84423828 C286.75839452 464.1401571 254.03490051 479.67184366 231.00512695 486.56689453 C227.8738965 487.49054731 224.73381706 488.33452061 221.56762695 489.12939453 C220.87209371 489.30500978 220.17656046 489.48062504 219.45995045 489.66156197 C211.77992794 491.39644873 204.13185781 491.58078994 196.28710938 491.74609375 C194.75169021 491.78399436 193.21627303 491.82197527 191.68085766 491.86002922 C172.51367365 492.30439584 153.34074553 492.27600752 134.16957116 492.26372004 C128.84808829 492.2611342 123.52660687 492.26355021 118.2051239 492.2651062 C109.30113406 492.26690715 100.39715262 492.2645737 91.49316406 492.25976562 C81.24478564 492.25429503 70.99642704 492.2561142 60.74804908 492.26159203 C51.86903347 492.26614483 42.99002379 492.26676407 34.11100739 492.26415336 C28.84157784 492.26260656 23.57215758 492.26235312 18.30272865 492.26568985 C13.36359739 492.26860147 8.42449156 492.26653312 3.48536301 492.26079559 C1.68760279 492.25948689 -0.11015962 492.25982944 -1.90791893 492.26205826 C-32.75228127 492.29674388 -32.75228127 492.29674388 -44.99487305 488.44189453 C-46.32119751 488.04151978 -46.32119751 488.04151978 -47.67431641 487.63305664 C-60.05710918 483.81201009 -71.4274877 479.06512913 -82.43237305 472.12939453 C-83.71742762 471.33756283 -85.00258914 470.54590468 -86.2878418 469.75439453 C-87.58692142 468.94333835 -88.88511323 468.13085826 -90.18237305 467.31689453 C-91.11448608 466.73911255 -91.11448608 466.73911255 -92.06542969 466.1496582 C-93.55714577 465.19716236 -95.00036855 464.16950431 -96.43237305 463.12939453 C-96.43237305 462.46939453 -96.43237305 461.80939453 -96.43237305 461.12939453 C-97.54418945 460.75621094 -97.54418945 460.75621094 -98.6784668 460.37548828 C-101.67622489 459.0190559 -103.25820072 457.57975346 -105.49487305 455.19189453 C-107.48929321 453.07899397 -109.32340519 451.20841992 -111.6784668 449.50048828 C-112.54665039 448.82179688 -112.54665039 448.82179688 -113.43237305 448.12939453 C-113.43237305 447.46939453 -113.43237305 446.80939453 -113.43237305 446.12939453 C-114.09237305 446.12939453 -114.75237305 446.12939453 -115.43237305 446.12939453 C-115.43237305 445.46939453 -115.43237305 444.80939453 -115.43237305 444.12939453 C-116.09237305 444.12939453 -116.75237305 444.12939453 -117.43237305 444.12939453 C-120.6659084 440.6610589 -123.5130781 436.86326693 -126.43237305 433.12939453 C-127.0872168 432.32373047 -127.74206055 431.51806641 -128.41674805 430.68798828 C-140.04484739 415.72041413 -147.17882942 398.18741277 -152.43237305 380.12939453 C-152.75384811 379.14105621 -153.07532318 378.1527179 -153.40653992 377.13442993 C-159.86922802 354.2259427 -156.72885129 326.55283657 -156.70102406 303.01446629 C-156.69588787 297.29534794 -156.70067606 291.57623536 -156.70379639 285.8571167 C-156.707413 276.26540963 -156.70269676 266.67373358 -156.69311523 257.08203125 C-156.68222272 246.05175428 -156.68577145 235.02155123 -156.69676805 223.99127603 C-156.70589222 214.45077777 -156.70710166 204.91030155 -156.70189071 195.36980033 C-156.69880063 189.7020902 -156.69827908 184.03441464 -156.70496368 178.36670685 C-156.71081235 173.03778239 -156.70660535 167.7089518 -156.69517517 162.38003731 C-156.69256879 160.44451362 -156.69322307 158.5089818 -156.6977005 156.57346153 C-156.77672372 118.89077705 -150.0203304 85.39500172 -126.43237305 55.12939453 C-125.77237305 54.13939453 -125.11237305 53.14939453 -124.43237305 52.12939453 C-123.77237305 52.12939453 -123.11237305 52.12939453 -122.43237305 52.12939453 C-122.05532227 51.26121094 -122.05532227 51.26121094 -121.6706543 50.37548828 C-120.27644391 47.84655776 -118.69446947 46.19508993 -116.61987305 44.19189453 C-115.90959961 43.50224609 -115.19932617 42.81259766 -114.4675293 42.10205078 C-113.46012695 41.12558594 -113.46012695 41.12558594 -112.43237305 40.12939453 C-111.47232515 39.13104048 -110.51365837 38.13135319 -109.55737305 37.12939453 C-107.43237305 35.12939453 -107.43237305 35.12939453 -105.43237305 35.12939453 C-105.43237305 34.46939453 -105.43237305 33.80939453 -105.43237305 33.12939453 C-104.77237305 33.12939453 -104.11237305 33.12939453 -103.43237305 33.12939453 C-103.43237305 32.46939453 -103.43237305 31.80939453 -103.43237305 31.12939453 C-101.17755292 29.28946131 -98.91857957 27.57310614 -96.55737305 25.87939453 C-95.92573242 25.41404297 -95.2940918 24.94869141 -94.64331055 24.46923828 C-85.98658974 18.18445898 -77.17722917 13.26964021 -67.18237305 9.44189453 C-66.17964355 9.05324219 -65.17691406 8.66458984 -64.14379883 8.26416016 C-56.64677981 5.42908194 -49.35876008 3.39400329 -41.43237305 2.12939453 C-40.68432057 1.96680586 -39.9362681 1.80421719 -39.16554737 1.63670158 C-26.40604527 -0.73160158 -12.9179332 -0.01400554 0 0 Z M-58.43237305 49.12939453 C-59.43913086 49.55349609 -60.44588867 49.97759766 -61.4831543 50.41455078 C-85.41692553 61.34339231 -101.92999001 84.41298901 -111.43237305 108.12939453 C-116.93692185 123.07616766 -116.73145511 138.5653923 -116.72290039 154.25512695 C-116.72889528 156.46279119 -116.73570302 158.67045334 -116.74325562 160.87811279 C-116.76082454 166.83912453 -116.76560712 172.80007875 -116.76688719 178.76111388 C-116.76831447 182.49513509 -116.77259495 186.22914194 -116.77788162 189.96315956 C-116.7954009 202.345823 -116.80472562 214.72845602 -116.80322067 227.11113139 C-116.80314076 227.776272 -116.80306085 228.4414126 -116.80297852 229.12670898 C-116.80289675 229.79267762 -116.80281499 230.45864625 -116.80273075 231.14479575 C-116.8019186 241.926996 -116.82104722 252.70905633 -116.84925525 263.49121615 C-116.87810452 274.60768908 -116.89142418 285.7241045 -116.8900677 296.840617 C-116.8895604 303.06346279 -116.89511424 309.28614999 -116.9164238 315.50896263 C-116.93593971 321.36718324 -116.93584012 327.2250961 -116.92139053 333.08332825 C-116.91931784 335.21845264 -116.92390996 337.35359698 -116.93611145 339.48868752 C-116.99054283 349.68346261 -116.72033876 359.51584219 -114.65982056 369.5292511 C-114.5058054 370.27796736 -114.35179024 371.02668362 -114.19310796 371.79808825 C-112.65193182 378.44937491 -109.7104038 384.19038366 -106.23706055 390.02783203 C-104.43237305 393.12939453 -104.43237305 393.12939453 -103.40112305 395.73486328 C-102.28177334 398.501643 -100.80535291 400.65101843 -99.05737305 403.06689453 C-97.17062962 405.68921855 -95.32863354 408.29329852 -93.6003418 411.02392578 C-85.65932823 422.39889115 -74.41332733 431.32345977 -62.43237305 438.12939453 C-61.77237305 438.12939453 -61.11237305 438.12939453 -60.43237305 438.12939453 C-60.43237305 438.78939453 -60.43237305 439.44939453 -60.43237305 440.12939453 C-48.44603713 446.01236279 -36.49025616 449.44129965 -23.43237305 452.12939453 C-22.39379339 452.38640861 -22.39379339 452.38640861 -21.33423233 452.64861488 C-17.4744938 453.28809583 -13.66169306 453.28090577 -9.76116943 453.28329468 C-8.88840559 453.28767693 -8.01564175 453.29205919 -7.11643052 453.29657423 C-4.19146903 453.3099293 -1.26653765 453.31613402 1.65844727 453.32226562 C3.75652705 453.33016998 5.85460548 453.33843914 7.9526825 453.3470459 C14.85035914 453.37325512 21.74804177 453.3885851 28.64575195 453.40283203 C31.02784987 453.40819455 33.40994775 453.41357206 35.79204559 453.41896439 C45.71563822 453.44060273 55.63922925 453.45933142 65.56283951 453.47058678 C79.73388821 453.48676898 93.90466023 453.51979587 108.07560468 453.57698762 C118.06327462 453.61590304 128.0508713 453.63524558 138.03861499 453.64050734 C143.98909821 453.64413497 149.9392863 453.65587518 155.88968658 453.68861008 C198.01292577 453.90883413 234.06310007 452.139948 265.56762695 421.12939453 C270.87680625 415.82972989 274.76720986 410.51257552 278.14575195 403.80517578 C279.56762695 401.12939453 279.56762695 401.12939453 281.54418945 398.28955078 C283.82945764 394.72047363 285.26398842 391.2228349 286.69262695 387.25439453 C286.94399414 386.58537109 287.19536133 385.91634766 287.4543457 385.22705078 C290.67917987 376.46428149 291.88342099 368.71062133 291.98168945 359.39501953 C292.00114624 358.19079849 292.02060303 356.98657745 292.04064941 355.74586487 C292.09165741 352.34899501 292.13304999 348.95228714 292.16892242 345.55524063 C292.19283048 343.36071259 292.22008691 341.1662488 292.24822998 338.97177124 C292.64787437 307.33712333 292.67216456 275.69899338 292.68902314 244.06222785 C292.69152594 239.37086965 292.69583037 234.67951562 292.70074463 229.98815918 C292.71408366 214.79565741 292.686234 199.60396912 292.60290527 184.41168213 C292.57670707 179.55026699 292.56309166 174.68905889 292.55969238 169.82757568 C292.55409985 163.98402109 292.51822685 158.14136524 292.46041489 152.29810143 C292.44371412 150.15705461 292.43668132 148.01590413 292.44067764 145.87479591 C292.46552798 125.41090248 287.84774035 108.13313469 276.67700195 90.85986328 C275.79440876 89.48314221 274.98072719 88.06230405 274.19262695 86.62939453 C271.71986184 82.82514051 268.82513503 79.2927096 265.56762695 76.12939453 C264.90762695 76.12939453 264.24762695 76.12939453 263.56762695 76.12939453 C263.56762695 75.46939453 263.56762695 74.80939453 263.56762695 74.12939453 C262.90762695 74.12939453 262.24762695 74.12939453 261.56762695 74.12939453 C261.34719727 73.57509766 261.12676758 73.02080078 260.8996582 72.44970703 C259.1343593 69.37467024 256.87862778 67.38294061 254.25512695 65.00439453 C252.83780273 63.70115234 252.83780273 63.70115234 251.3918457 62.37158203 C248.78643493 60.3031093 246.70638196 59.14706009 243.56762695 58.12939453 C243.56762695 57.46939453 243.56762695 56.80939453 243.56762695 56.12939453 C230.00306683 48.64667734 230.00306683 48.64667734 215.56762695 43.12939453 C214.47042611 42.79277959 213.37322527 42.45616465 212.24277592 42.10934925 C201.21482729 39.02849539 190.88525072 38.54348456 179.48144531 38.56762695 C177.51641911 38.55722866 175.55140136 38.54511365 173.58639526 38.53143311 C168.2945995 38.49953052 163.00302496 38.49179563 157.71114421 38.48895812 C152.13652055 38.48204848 146.56200396 38.45345053 140.98744202 38.42756653 C131.62265616 38.38713099 122.25792486 38.36123542 112.89306641 38.34545898 C100.93907593 38.32526321 88.98528862 38.28208316 77.031394 38.23116589 C66.67911782 38.18716204 56.32681267 38.15282248 45.97449422 38.1205008 C42.68470861 38.10995063 39.39492805 38.09831215 36.10514641 38.08659935 C30.89540142 38.06876024 25.6856724 38.05697427 20.47590256 38.04951477 C18.5843407 38.04606072 16.69278089 38.0409031 14.80122948 38.03373146 C-11.43507163 37.93802079 -34.12959026 38.61465469 -58.43237305 49.12939453 Z " fill="#FEFEFE" transform="translate(161.432373046875,3.87060546875)"/>
<path d="M0 0 C0.80050781 0.52980469 1.60101563 1.05960938 2.42578125 1.60546875 C3.96124039 2.62324445 5.49165255 3.64869757 7.015625 4.68359375 C8.65596896 5.77177469 10.3533912 6.7733664 12.0625 7.75 C12.701875 8.1625 13.34125 8.575 14 9 C14 9.66 14 10.32 14 11 C14.5671875 11.25394531 15.134375 11.50789063 15.71875 11.76953125 C25.9175297 17.27058537 33.2206541 27.90881432 40 37 C40.79535156 38.04414063 41.59070313 39.08828125 42.41015625 40.1640625 C47.66625202 47.6356907 51.10516241 55.56798759 54.4375 64.0625 C54.86305176 65.13862549 55.28860352 66.21475098 55.72705078 67.32348633 C59.81763453 78.21212032 61.22913256 89.11800607 61.6875 100.6875 C61.72584961 101.62811279 61.76419922 102.56872559 61.80371094 103.5378418 C62.50795289 124.1857277 60.29290139 143.01651485 52 162 C51.32795568 163.78965648 50.66062124 165.58109547 50 167.375 C48.0327085 172.30149468 45.43436535 176.93763642 42 181 C41.34 181 40.68 181 40 181 C39.71125 181.763125 39.4225 182.52625 39.125 183.3125 C38 186 38 186 36 189 C35.34 189 34.68 189 34 189 C33.75121094 189.56332031 33.50242187 190.12664062 33.24609375 190.70703125 C28.48079843 199.47577217 19.79664678 206.05811108 12 212 C11.19820312 212.61746094 10.39640625 213.23492187 9.5703125 213.87109375 C-18.9937508 234.89611739 -54.57779568 239.10289469 -88.91015625 234.47265625 C-98.19288776 232.85033813 -106.41541662 229.73199254 -115 226 C-116.19496094 225.54173828 -116.19496094 225.54173828 -117.4140625 225.07421875 C-128.59170612 220.65758429 -140.38893289 212.26662443 -149 204 C-149 203.34 -149 202.68 -149 202 C-149.66 202 -150.32 202 -151 202 C-151 201.34 -151 200.68 -151 200 C-151.66 200 -152.32 200 -153 200 C-156.20828539 196.50938549 -159.06913511 192.72474482 -162 189 C-162.51949219 188.36835938 -163.03898437 187.73671875 -163.57421875 187.0859375 C-167.23594295 182.49042117 -170.19618767 177.48247676 -173.1875 172.4375 C-173.61603271 171.71675293 -174.04456543 170.99600586 -174.48608398 170.25341797 C-179.38851858 161.85281689 -181.93277493 153.89491319 -184.125 144.4375 C-184.38925781 143.32697266 -184.65351563 142.21644531 -184.92578125 141.07226562 C-187.29160338 131.03853775 -188.27522543 121.75079201 -188.3125 111.4375 C-188.31511841 110.7477005 -188.31773682 110.057901 -188.32043457 109.34719849 C-188.32504558 97.97892319 -187.32045918 87.19523628 -184.53808594 76.14550781 C-184.04717296 74.18809253 -183.61786961 72.21548819 -183.1953125 70.2421875 C-180.32287192 58.23265022 -173.9250566 46.46298838 -166 37 C-164.91525391 35.54207031 -164.91525391 35.54207031 -163.80859375 34.0546875 C-148.70208995 13.79654237 -148.70208995 13.79654237 -140 11 C-140 10.34 -140 9.68 -140 9 C-134.58823529 5 -134.58823529 5 -132 5 C-132 4.34 -132 3.68 -132 3 C-128.19767482 0.34179789 -124.07851831 -1.79713926 -120 -4 C-118.52080078 -4.80050781 -118.52080078 -4.80050781 -117.01171875 -5.6171875 C-107.44454877 -10.40697688 -97.40892933 -12.75251548 -87 -15 C-85.90171875 -15.24878906 -84.8034375 -15.49757813 -83.671875 -15.75390625 C-56.43207802 -20.9615145 -23.1236191 -15.83865591 0 0 Z M-112 37 C-112.99 37.66 -113.98 38.32 -115 39 C-115 39.66 -115 40.32 -115 41 C-115.7425 41.2475 -116.485 41.495 -117.25 41.75 C-120.23023087 43.10465039 -121.89919252 44.5101541 -124 47 C-124 47.66 -124 48.32 -124 49 C-124.87205078 49.34417969 -124.87205078 49.34417969 -125.76171875 49.6953125 C-136.18944961 55.77360588 -143.1254448 73.04449544 -146.2734375 84.08984375 C-147.58564502 89.3457287 -148.19037924 94.27621802 -148.2734375 99.6953125 C-148.28592026 100.43656876 -148.29840302 101.17782501 -148.31126404 101.94154358 C-148.99964329 130.34418358 -148.99964329 130.34418358 -138 156 C-137.26652344 157.02351562 -136.53304687 158.04703125 -135.77734375 159.1015625 C-123.91491935 175.248421 -110.15901615 186.65168072 -91 193 C-90.01708984 193.35143066 -89.03417969 193.70286133 -88.02148438 194.06494141 C-79.91610097 196.81729729 -72.65648042 197.63484085 -64.125 197.5 C-62.89773193 197.48864014 -61.67046387 197.47728027 -60.40600586 197.46557617 C-51.32326097 197.27112223 -43.54756395 196.20401904 -35 193 C-33.90300781 192.649375 -32.80601562 192.29875 -31.67578125 191.9375 C-23.21689144 189.0544701 -15.85240981 184.70847233 -9 179 C-9 178.34 -9 177.68 -9 177 C-8.42507813 176.74605469 -7.85015625 176.49210938 -7.2578125 176.23046875 C5.75467203 169.13888981 14.92663503 151.61667719 19 138 C25.21312146 115.06126045 24.92105961 89.36193607 13.23828125 68.015625 C8.86266407 60.84220846 8.86266407 60.84220846 4 54 C3.34 54 2.68 54 2 54 C1.7525 53.42894531 1.505 52.85789062 1.25 52.26953125 C-6.22177545 38.70358896 -24.34965209 29.35513684 -38.72143555 25.09033203 C-63.69101582 18.59325265 -90.90244365 22.20846256 -112 37 Z " fill="#FEFEFE" transform="translate(313,140)"/>
<path d="M0 0 C1.75728439 1.71615646 3.37319594 3.48252965 4.9609375 5.35546875 C5.6828125 6.15984375 6.4046875 6.96421875 7.1484375 7.79296875 C11.64861522 14.15528898 13.63484271 19.76234694 13.9609375 27.54296875 C14.02410156 28.32349609 14.08726562 29.10402344 14.15234375 29.90820312 C14.36319823 33.91783914 14.35008157 35.77135147 12.06640625 39.19921875 C11.37160156 39.91078125 10.67679687 40.62234375 9.9609375 41.35546875 C9.4040625 42.44859375 8.8471875 43.54171875 8.2734375 44.66796875 C4.09244891 52.09003377 -2.83657075 57.20138999 -10.88671875 59.73046875 C-20.97210893 61.73005045 -31.90788598 61.52767363 -41.0390625 56.35546875 C-43.3359375 54.33984375 -43.3359375 54.33984375 -45.0390625 52.35546875 C-45.0390625 51.69546875 -45.0390625 51.03546875 -45.0390625 50.35546875 C-45.65523438 50.10023438 -46.27140625 49.845 -46.90625 49.58203125 C-51.37093944 47.01442596 -52.9160164 41.2377834 -54.2890625 36.48046875 C-56.40245658 26.69412139 -55.39859361 15.64927535 -49.9765625 7.10546875 C-48.0390625 5.35546875 -48.0390625 5.35546875 -46.0390625 5.35546875 C-45.8121875 4.77796875 -45.5853125 4.20046875 -45.3515625 3.60546875 C-41.92331221 -2.27153175 -36.26396893 -3.99104048 -30.0390625 -5.64453125 C-20.00879171 -7.87348032 -8.19760065 -6.61147486 0 0 Z " fill="#FEFEFE" transform="translate(398.0390625,91.64453125)"/>
<path d="M0 0 C0.33 0 0.66 0 1 0 C1 3.3 1 6.6 1 10 C0.01 9.67 -0.98 9.34 -2 9 C-1.125 1.125 -1.125 1.125 0 0 Z " fill="#EDEDED" transform="translate(494,344)"/>
<path d="M0 0 C0.66 0 1.32 0 2 0 C2 2.64 2 5.28 2 8 C1.01 8.33 0.02 8.66 -1 9 C-0.67 6.03 -0.34 3.06 0 0 Z " fill="#F4F4F4" transform="translate(454,346)"/>
</svg>
